<svg xmlns="http://www.w3.org/2000/svg" version="1.1" xmlns:xlink="http://www.w3.org/1999/xlink" width="1209.4342235655154" height="200" viewBox="0.7886956334114075 10.277566909790039 207.28956604003906 25.932432174682617"><path d="M7.05 13.36L7.05 13.36Q7.79 12.27 8.43 12.67Q9.06 13.07 9.08 13.43Q9.10 13.79 9.51 14.65Q9.92 15.51 10.43 16.95Q10.94 18.40 11.10 21.04Q11.27 23.69 11.76 24.48Q12.25 25.27 13.79 23.45Q15.33 21.62 16.58 20.13Q17.83 18.63 19.06 17.53Q20.29 16.43 20.92 15.81Q21.54 15.20 22.61 14.37Q23.67 13.54 24.17 13.62Q24.67 13.71 24.99 13.99Q25.31 14.28 25.48 14.78Q25.64 15.27 25.27 17.45Q24.90 19.63 24.57 21.81Q24.24 23.98 24.12 25.59Q24.00 27.19 24.21 27.56Q24.41 27.93 24.77 28.02Q25.12 28.11 25.63 27.77Q26.15 27.44 26.96 26.39Q27.77 25.33 26.50 27.59Q25.23 29.84 24.29 30.24Q23.34 30.64 22.93 30.44Q22.52 30.23 22.23 29.86Q21.93 29.49 21.65 28.54Q21.37 27.60 21.48 26.53Q21.60 25.47 21.89 23.42Q22.19 21.37 22.31 20.59Q22.44 19.80 22.61 18.65Q22.77 17.50 22.11 17.87Q21.45 18.24 19.98 19.92Q18.52 21.60 16.49 24.10Q14.47 26.60 13.64 27.03Q12.81 27.46 12.40 27.51Q11.99 27.56 11.37 27.39Q10.74 27.23 10.14 26.75Q9.53 26.27 9.29 24.79Q9.04 23.30 8.82 21.25Q8.59 19.20 8.35 18.22Q8.11 17.25 6.76 20.43Q5.41 23.61 4.86 25.19Q4.32 26.76 3.70 28.26Q3.09 29.77 2.75 30.09Q2.42 30.41 1.89 30.28Q1.37 30.16 1.04 29.86Q0.70 29.57 0.82 29.04Q0.94 28.52 1.19 28.14Q1.45 27.77 1.56 27.28Q1.68 26.78 2.74 24.18Q3.81 21.58 4.19 20.32Q4.57 19.06 5.44 16.76Q6.31 14.45 7.05 13.36ZM34.75 23.26L34.75 23.26Q35.16 23.05 35.46 23.11Q35.76 23.16 35.88 23.39Q36.00 23.61 35.64 25.09Q35.29 26.56 35.18 27.60Q35.06 28.63 35.37 29.05Q35.68 29.47 36.46 29.36Q37.23 29.24 38.13 28.32Q39.02 27.40 38.33 28.23Q37.64 29.06 37.04 29.73Q36.45 30.39 36.00 30.57Q35.55 30.74 34.95 30.64Q34.36 30.55 33.98 30.18Q33.61 29.80 33.40 29.29Q33.18 28.77 33.36 28.02Q33.54 27.27 33.58 26.72Q33.63 26.17 33.14 26.78Q32.66 27.38 31.94 28.10Q31.23 28.81 30.43 29.36Q29.63 29.90 29.17 30.06Q28.71 30.21 28.25 30.28Q27.79 30.35 27.40 30.12Q27.01 29.88 26.91 29.38Q26.82 28.89 27.11 27.90Q27.40 26.91 28.10 25.21Q28.79 23.52 27.70 23.40Q26.60 23.28 26.05 22.92Q25.51 22.56 26.72 23.02Q27.93 23.48 28.40 22.93Q28.87 22.38 29.27 22.29Q29.67 22.19 30.03 22.32Q30.39 22.46 30.50 22.80Q30.61 23.14 30.46 23.61Q30.31 24.08 29.46 26.07Q28.61 28.07 29.41 27.83Q30.21 27.60 32.29 25.53Q34.36 23.46 34.75 23.26ZM43.16 10.47L43.16 10.47Q44.18 10.23 44.82 10.72Q45.47 11.21 44.57 12.44Q43.67 13.67 42.05 17.63Q40.43 21.58 39.94 23.24Q39.45 24.90 39.86 24.45Q40.27 24.00 40.67 23.64Q41.07 23.28 41.56 22.90Q42.05 22.52 42.45 22.34Q42.85 22.17 43.34 22.08Q43.83 21.99 44.23 22.22Q44.63 22.44 44.85 22.79Q45.08 23.14 45.13 24.06Q45.18 24.98 45.02 25.99Q44.86 26.99 45 27.50Q45.14 28.01 45.50 28.40Q45.86 28.79 46.74 28.58Q47.62 28.38 48.11 27.86Q48.59 27.34 48.33 27.93Q48.07 28.52 47.55 28.97Q47.03 29.43 46.29 29.78Q45.55 30.12 45.08 30.13Q44.61 30.14 44.12 29.74Q43.63 29.34 43.46 28.58Q43.28 27.83 43.38 26.25Q43.48 24.67 43.15 24.37Q42.83 24.06 41.49 25.06Q40.16 26.05 39.47 27.30Q38.79 28.55 38.46 29.42Q38.13 30.29 37.64 30.16Q37.15 30.02 36.88 29.71Q36.60 29.39 36.60 28.82Q36.60 28.24 37.77 24.36Q38.95 20.47 40.45 16.76Q41.95 13.05 42.21 12.25Q42.46 11.45 43.16 10.47ZM54.90 21.66L54.90 21.66Q55.35 21.54 55.89 21.62Q56.43 21.70 56.75 21.95Q57.07 22.21 57.36 22.95Q57.66 23.69 57.10 23.95Q56.54 24.20 56.09 23.77Q55.64 23.34 55.16 23.59Q54.67 23.85 54.19 24.11Q53.71 24.38 53.01 24.94Q52.30 25.51 51.56 26.39Q50.82 27.27 50.74 27.51Q50.66 27.75 51.12 27.44Q51.58 27.13 52.53 26.49Q53.48 25.86 54.91 25.20Q56.35 24.53 56.73 24.68Q57.11 24.82 57.38 25.21Q57.66 25.61 57.70 25.89Q57.73 26.17 57.61 26.34Q57.48 26.50 57.31 27.09Q57.15 27.68 57.34 28.22Q57.54 28.77 57.84 28.97Q58.14 29.18 58.67 29.09Q59.20 29.00 59.97 28.29Q60.74 27.58 59.90 28.62Q59.06 29.67 58.57 29.95Q58.09 30.23 57.81 30.22Q57.54 30.21 57.10 30.05Q56.66 29.88 56.27 29.53Q55.88 29.18 55.65 28.67Q55.43 28.16 55.35 27.92Q55.27 27.68 54.99 27.38Q54.71 27.09 54.30 27.26Q53.89 27.42 52.86 28.16Q51.84 28.91 50.95 29.38Q50.06 29.86 49.36 30.05Q48.65 30.23 48.45 30.18Q48.24 30.12 48.00 29.74Q47.75 29.36 47.71 28.91Q47.68 28.46 47.84 28.00Q48.01 27.54 49.09 26.16Q50.18 24.79 51.18 23.91Q52.19 23.03 53.32 22.41Q54.45 21.80 54.90 21.66ZM62.11 22.01L62.11 22.01Q62.85 21.00 63.32 21.04Q63.79 21.07 63.93 21.43Q64.06 21.78 64.16 22.08Q64.26 22.38 64.36 22.96Q64.45 23.54 63.56 25.20Q62.68 26.86 63.69 25.62Q64.71 24.38 65.43 24.07Q66.15 23.77 66.76 24.07Q67.36 24.38 67.52 24.80Q67.68 25.23 67.71 25.78Q67.75 26.33 67.87 26.41Q67.99 26.48 69.16 25.23Q70.33 23.98 71.22 23.58Q72.11 23.18 72.70 23.42Q73.28 23.65 73.72 24.34Q74.16 25.02 74.86 26.33Q75.57 27.64 76.32 28.25Q77.07 28.87 77.66 28.98Q78.24 29.10 79.69 28.35Q81.13 27.60 80.33 28.07Q79.53 28.54 78.72 28.88Q77.91 29.22 77.58 29.40Q77.25 29.59 76.67 29.73Q76.09 29.86 75.59 29.61Q75.08 29.36 74.61 28.96Q74.14 28.55 73.44 27.63Q72.73 26.70 72.43 26.25Q72.13 25.80 71.68 25.88Q71.23 25.96 70.74 26.38Q70.25 26.80 69.40 27.58Q68.55 28.36 68.08 29.22Q67.60 30.08 67.50 30.32Q67.40 30.57 66.99 31.01Q66.58 31.45 66.21 31.34Q65.84 31.23 65.67 30.95Q65.51 30.66 65.64 29.94Q65.78 29.22 65.87 28.55Q65.96 27.89 66.01 27.11Q66.05 26.33 65.55 26.28Q65.04 26.23 63.86 27.39Q62.68 28.55 62.36 29.20Q62.05 29.84 61.87 30.12Q61.68 30.39 61.47 30.55Q61.27 30.70 60.65 30.51Q60.04 30.31 59.96 30Q59.88 29.69 60.25 28.73Q60.63 27.77 61.23 25.78Q61.84 23.79 62.07 23.26Q62.30 22.73 58.82 25.18Q55.33 27.62 56.87 26.37Q58.40 25.12 59.88 24.07Q61.37 23.03 62.11 22.01ZM79.75 22.01L79.75 22.01Q80.49 21.00 80.96 21.04Q81.43 21.07 81.56 21.43Q81.70 21.78 81.80 22.08Q81.89 22.38 81.99 22.96Q82.09 23.54 81.20 25.20Q80.31 26.86 81.33 25.62Q82.34 24.38 83.07 24.07Q83.79 23.77 84.39 24.07Q85 24.38 85.16 24.80Q85.31 25.23 85.35 25.78Q85.39 26.33 85.51 26.41Q85.63 26.48 86.80 25.23Q87.97 23.98 88.86 23.58Q89.75 23.18 90.33 23.42Q90.92 23.65 91.36 24.34Q91.80 25.02 92.50 26.33Q93.20 27.64 93.96 28.25Q94.71 28.87 95.29 28.98Q95.88 29.10 97.32 28.35Q98.77 27.60 97.97 28.07Q97.17 28.54 96.36 28.88Q95.55 29.22 95.21 29.40Q94.88 29.59 94.31 29.73Q93.73 29.86 93.22 29.61Q92.71 29.36 92.25 28.96Q91.78 28.55 91.07 27.63Q90.37 26.70 90.07 26.25Q89.77 25.80 89.32 25.88Q88.87 25.96 88.38 26.38Q87.89 26.80 87.04 27.58Q86.19 28.36 85.71 29.22Q85.23 30.08 85.14 30.32Q85.04 30.57 84.63 31.01Q84.22 31.45 83.85 31.34Q83.48 31.23 83.31 30.95Q83.14 30.66 83.28 29.94Q83.42 29.22 83.51 28.55Q83.59 27.89 83.64 27.11Q83.69 26.33 83.18 26.28Q82.68 26.23 81.49 27.39Q80.31 28.55 80 29.20Q79.69 29.84 79.50 30.12Q79.32 30.39 79.11 30.55Q78.91 30.70 78.29 30.51Q77.68 30.31 77.60 30Q77.52 29.69 77.89 28.73Q78.26 27.77 78.87 25.78Q79.47 23.79 79.71 23.26Q79.94 22.73 76.46 25.18Q72.97 27.62 74.50 26.37Q76.04 25.12 77.52 24.07Q79.00 23.03 79.75 22.01ZM97.38 22.01L97.38 22.01Q98.13 21.00 98.59 21.04Q99.06 21.07 99.20 21.43Q99.34 21.78 99.43 22.08Q99.53 22.38 99.63 22.96Q99.73 23.54 98.84 25.20Q97.95 26.86 98.96 25.62Q99.98 24.38 100.70 24.07Q101.43 23.77 102.03 24.07Q102.64 24.38 102.79 24.80Q102.95 25.23 102.99 25.78Q103.03 26.33 103.14 26.41Q103.26 26.48 104.43 25.23Q105.61 23.98 106.49 23.58Q107.38 23.18 107.97 23.42Q108.55 23.65 108.99 24.34Q109.43 25.02 110.14 26.33Q110.84 27.64 111.59 28.25Q112.34 28.87 112.93 28.98Q113.52 29.10 114.96 28.35Q116.41 27.60 115.61 28.07Q114.80 28.54 113.99 28.88Q113.18 29.22 112.85 29.40Q112.52 29.59 111.94 29.73Q111.37 29.86 110.86 29.61Q110.35 29.36 109.88 28.96Q109.41 28.55 108.71 27.63Q108.01 26.70 107.71 26.25Q107.40 25.80 106.95 25.88Q106.50 25.96 106.02 26.38Q105.53 26.80 104.68 27.58Q103.83 28.36 103.35 29.22Q102.87 30.08 102.77 30.32Q102.68 30.57 102.27 31.01Q101.86 31.45 101.48 31.34Q101.11 31.23 100.95 30.95Q100.78 30.66 100.92 29.94Q101.05 29.22 101.14 28.55Q101.23 27.89 101.28 27.11Q101.33 26.33 100.82 26.28Q100.31 26.23 99.13 27.39Q97.95 28.55 97.64 29.20Q97.32 29.84 97.14 30.12Q96.95 30.39 96.75 30.55Q96.54 30.70 95.93 30.51Q95.31 30.31 95.23 30Q95.16 29.69 95.53 28.73Q95.90 27.77 96.50 25.78Q97.11 23.79 97.34 23.26Q97.58 22.73 94.09 25.18Q90.61 27.62 92.14 26.37Q93.67 25.12 95.16 24.07Q96.64 23.03 97.38 22.01ZM119.39 21.66L119.39 21.66Q119.84 21.54 120.38 21.62Q120.92 21.70 121.24 21.95Q121.56 22.21 121.86 22.95Q122.15 23.69 121.59 23.95Q121.04 24.20 120.59 23.77Q120.14 23.34 119.65 23.59Q119.16 23.85 118.68 24.11Q118.20 24.38 117.50 24.94Q116.80 25.51 116.05 26.39Q115.31 27.27 115.23 27.51Q115.16 27.75 115.62 27.44Q116.07 27.13 117.02 26.49Q117.97 25.86 119.40 25.20Q120.84 24.53 121.22 24.68Q121.60 24.82 121.88 25.21Q122.15 25.61 122.19 25.89Q122.23 26.17 122.10 26.34Q121.97 26.50 121.81 27.09Q121.64 27.68 121.84 28.22Q122.03 28.77 122.33 28.97Q122.64 29.18 123.16 29.09Q123.69 29.00 124.46 28.29Q125.23 27.58 124.39 28.62Q123.55 29.67 123.07 29.95Q122.58 30.23 122.30 30.22Q122.03 30.21 121.59 30.05Q121.15 29.88 120.76 29.53Q120.37 29.18 120.15 28.67Q119.92 28.16 119.84 27.92Q119.77 27.68 119.48 27.38Q119.20 27.09 118.79 27.26Q118.38 27.42 117.35 28.16Q116.33 28.91 115.44 29.38Q114.55 29.86 113.85 30.05Q113.14 30.23 112.94 30.18Q112.73 30.12 112.49 29.74Q112.25 29.36 112.21 28.91Q112.17 28.46 112.33 28.00Q112.50 27.54 113.58 26.16Q114.67 24.79 115.67 23.91Q116.68 23.03 117.81 22.41Q118.95 21.80 119.39 21.66ZM130.43 10.59L130.43 10.59Q130.66 10.25 131.07 10.28Q131.48 10.31 131.84 10.63Q132.19 10.96 132.59 11.56Q132.99 12.17 133.29 13.99Q133.59 15.82 133.39 17.49Q133.18 19.16 133.06 19.61Q132.93 20.06 133.44 20.57Q133.95 21.07 133.92 21.50Q133.89 21.93 133.52 22.21Q133.14 22.48 132.79 22.38Q132.44 22.29 131.98 23.46Q131.52 24.63 130.86 25.75Q130.20 26.88 129.65 27.64Q129.10 28.40 128.15 29.23Q127.21 30.06 126.68 30.18Q126.15 30.29 125.76 30.17Q125.37 30.04 125.04 29.51Q124.71 28.98 124.68 27.54Q124.65 26.09 125.53 24.69Q126.41 23.28 128.69 22.22Q130.98 21.15 130.24 21.46Q129.51 21.76 124.75 22.24Q119.98 22.71 125.19 22.01Q130.39 21.31 130.91 20.78Q131.43 20.25 131.65 19.05Q131.88 17.85 131.89 16.82Q131.91 15.78 131.76 14.74Q131.60 13.69 130.83 12.63Q130.06 11.56 130.14 11.23Q130.21 10.90 130.43 10.59ZM129.12 23.98L129.12 23.98Q128.71 24.16 127.91 24.94Q127.11 25.72 126.82 26.40Q126.52 27.07 126.66 27.47Q126.80 27.87 127.84 26.80Q128.89 25.72 129.21 25.03Q129.53 24.34 129.54 24.07Q129.55 23.81 129.12 23.98ZM150.61 10.78L150.61 10.78Q150.76 10.63 151.20 10.77Q151.64 10.92 151.82 11.64Q151.99 12.36 151.88 12.48Q151.78 12.60 151.63 12.99Q151.48 13.38 151.05 14.51Q150.63 15.64 149.38 18.87Q148.14 22.09 147.76 23.02Q147.38 23.95 147.80 23.78Q148.22 23.61 148.69 23.54Q149.16 23.48 150.11 23.29Q151.05 23.11 152.46 22.71Q153.87 22.30 154.09 22.13Q154.32 21.95 154.61 21.11Q154.90 20.27 155.81 17.30Q156.72 14.34 156.76 14.11Q156.80 13.89 157.05 13.96Q157.30 14.04 157.63 14.26Q157.95 14.47 158.02 14.83Q158.09 15.20 158.13 15.49Q158.16 15.78 157.73 17.45Q157.30 19.12 157.12 20.07Q156.93 21.02 157.04 21.15Q157.15 21.29 157.99 21.07Q158.83 20.86 158.86 21.77Q158.89 22.68 157.87 22.97Q156.86 23.26 156.56 23.38Q156.27 23.50 156.02 24.27Q155.76 25.04 154.88 27.47Q154.00 29.90 153.64 30.79Q153.28 31.68 152.59 32.65Q151.89 33.61 152.23 31.98Q152.56 30.35 152.70 29.95Q152.83 29.55 152.98 28.64Q153.13 27.73 153.35 26.72Q153.57 25.70 153.68 24.94Q153.79 24.18 151.90 24.74Q150.02 25.29 148.29 25.80Q146.56 26.31 146.20 27.07Q145.84 27.83 144.83 30.89Q143.83 33.95 143.55 34.80Q143.28 35.66 142.85 36.03Q142.42 36.39 142.10 36.03Q141.78 35.66 141.59 35.51Q141.41 35.35 142.42 32.17Q143.44 28.98 143.79 28.04Q144.14 27.09 143.60 26.88Q143.07 26.66 143.00 26.23Q142.93 25.80 143.04 25.40Q143.14 25 143.84 24.60Q144.53 24.20 144.85 23.95Q145.18 23.69 145.51 22.93Q145.84 22.17 146.16 21.34Q146.48 20.51 147.40 18.08Q148.32 15.64 149.22 13.36Q150.12 11.07 150.28 11.00Q150.45 10.92 150.61 10.78ZM164.41 21.66L164.41 21.66Q164.86 21.54 165.40 21.62Q165.94 21.70 166.26 21.95Q166.58 22.21 166.88 22.95Q167.17 23.69 166.61 23.95Q166.05 24.20 165.61 23.77Q165.16 23.34 164.67 23.59Q164.18 23.85 163.70 24.11Q163.22 24.38 162.52 24.94Q161.82 25.51 161.07 26.39Q160.33 27.27 160.25 27.51Q160.18 27.75 160.63 27.44Q161.09 27.13 162.04 26.49Q162.99 25.86 164.42 25.20Q165.86 24.53 166.24 24.68Q166.62 24.82 166.89 25.21Q167.17 25.61 167.21 25.89Q167.25 26.17 167.12 26.34Q166.99 26.50 166.83 27.09Q166.66 27.68 166.86 28.22Q167.05 28.77 167.35 28.97Q167.66 29.18 168.18 29.09Q168.71 29.00 169.48 28.29Q170.25 27.58 169.41 28.62Q168.57 29.67 168.09 29.95Q167.60 30.23 167.32 30.22Q167.05 30.21 166.61 30.05Q166.17 29.88 165.78 29.53Q165.39 29.18 165.17 28.67Q164.94 28.16 164.86 27.92Q164.79 27.68 164.50 27.38Q164.22 27.09 163.81 27.26Q163.40 27.42 162.37 28.16Q161.35 28.91 160.46 29.38Q159.57 29.86 158.87 30.05Q158.16 30.23 157.96 30.18Q157.75 30.12 157.51 29.74Q157.27 29.36 157.23 28.91Q157.19 28.46 157.35 28.00Q157.52 27.54 158.60 26.16Q159.69 24.79 160.69 23.91Q161.70 23.03 162.83 22.41Q163.96 21.80 164.41 21.66ZM171.62 22.01L171.62 22.01Q172.36 21.00 172.83 21.04Q173.30 21.07 173.44 21.43Q173.57 21.78 173.67 22.08Q173.77 22.38 173.87 22.96Q173.96 23.54 173.08 25.20Q172.19 26.86 173.20 25.62Q174.22 24.38 174.94 24.07Q175.66 23.77 176.27 24.07Q176.88 24.38 177.03 24.80Q177.19 25.23 177.23 25.78Q177.27 26.33 177.38 26.41Q177.50 26.48 178.67 25.23Q179.84 23.98 180.73 23.58Q181.62 23.18 182.21 23.42Q182.79 23.65 183.23 24.34Q183.67 25.02 184.38 26.33Q185.08 27.64 185.83 28.25Q186.58 28.87 187.17 28.98Q187.75 29.10 189.20 28.35Q190.64 27.60 189.84 28.07Q189.04 28.54 188.23 28.88Q187.42 29.22 187.09 29.40Q186.76 29.59 186.18 29.73Q185.61 29.86 185.10 29.61Q184.59 29.36 184.12 28.96Q183.65 28.55 182.95 27.63Q182.25 26.70 181.94 26.25Q181.64 25.80 181.19 25.88Q180.74 25.96 180.25 26.38Q179.77 26.80 178.92 27.58Q178.07 28.36 177.59 29.22Q177.11 30.08 177.01 30.32Q176.91 30.57 176.50 31.01Q176.09 31.45 175.72 31.34Q175.35 31.23 175.19 30.95Q175.02 30.66 175.16 29.94Q175.29 29.22 175.38 28.55Q175.47 27.89 175.52 27.11Q175.57 26.33 175.06 26.28Q174.55 26.23 173.37 27.39Q172.19 28.55 171.88 29.20Q171.56 29.84 171.38 30.12Q171.19 30.39 170.99 30.55Q170.78 30.70 170.17 30.51Q169.55 30.31 169.47 30Q169.39 29.69 169.77 28.73Q170.14 27.77 170.74 25.78Q171.35 23.79 171.58 23.26Q171.82 22.73 168.33 25.18Q164.84 27.62 166.38 26.37Q167.91 25.12 169.39 24.07Q170.88 23.03 171.62 22.01ZM193.85 21.78L193.85 21.78Q194.16 21.74 194.74 21.94Q195.31 22.15 195.45 22.33Q195.59 22.52 195.60 22.81Q195.61 23.11 195.57 23.54Q195.53 23.98 195.23 24.52Q194.94 25.06 193.94 25.95Q192.93 26.84 192.22 27.53Q191.50 28.22 191.18 28.58Q190.86 28.95 190.25 29.38Q189.65 29.82 190.23 29.85Q190.82 29.88 192.06 30.14Q193.30 30.39 194.27 30.58Q195.23 30.76 195.85 30.66Q196.46 30.57 197.82 30.29Q199.18 30.02 198.13 30.27Q197.07 30.53 196.22 30.80Q195.37 31.07 194.87 31.28Q194.38 31.48 193.93 31.70Q193.48 31.91 192.63 31.90Q191.78 31.89 191.22 31.73Q190.66 31.56 189.68 31.48Q188.69 31.41 188.30 31.44Q187.91 31.46 187.67 31.65Q187.42 31.84 187.07 31.85Q186.72 31.86 186.50 31.78Q186.29 31.70 186.13 31.48Q185.98 31.27 186.06 30.73Q186.15 30.20 186.39 30Q186.62 29.80 187.04 29.60Q187.46 29.39 188.62 28.40Q189.79 27.40 190.48 26.74Q191.17 26.07 191.99 25.37Q192.81 24.67 193.13 24.29Q193.46 23.91 192.86 23.98Q192.27 24.06 191.11 24.51Q189.96 24.96 189.67 25.30Q189.38 25.64 189.11 25.58Q188.85 25.51 188.72 25.24Q188.59 24.98 188.68 24.47Q188.77 23.96 189.51 23.46Q190.25 22.95 191.19 22.56Q192.13 22.17 192.84 21.98Q193.55 21.80 193.85 21.78ZM202.64 21.66L202.64 21.66Q203.09 21.54 203.62 21.62Q204.16 21.70 204.48 21.95Q204.80 22.21 205.10 22.95Q205.39 23.69 204.83 23.95Q204.28 24.20 203.83 23.77Q203.38 23.34 202.89 23.59Q202.40 23.85 201.92 24.11Q201.45 24.38 200.74 24.94Q200.04 25.51 199.30 26.39Q198.55 27.27 198.48 27.51Q198.40 27.75 198.86 27.44Q199.32 27.13 200.26 26.49Q201.21 25.86 202.65 25.20Q204.08 24.53 204.46 24.68Q204.84 24.82 205.12 25.21Q205.39 25.61 205.43 25.89Q205.47 26.17 205.34 26.34Q205.21 26.50 205.05 27.09Q204.88 27.68 205.08 28.22Q205.27 28.77 205.58 28.97Q205.88 29.18 206.41 29.09Q206.93 29.00 207.71 28.29Q208.48 27.58 207.64 28.62Q206.80 29.67 206.31 29.95Q205.82 30.23 205.55 30.22Q205.27 30.21 204.83 30.05Q204.39 29.88 204.00 29.53Q203.61 29.18 203.39 28.67Q203.16 28.16 203.09 27.92Q203.01 27.68 202.72 27.38Q202.44 27.09 202.03 27.26Q201.62 27.42 200.60 28.16Q199.57 28.91 198.68 29.38Q197.79 29.86 197.09 30.05Q196.39 30.23 196.18 30.18Q195.98 30.12 195.73 29.74Q195.49 29.36 195.45 28.91Q195.41 28.46 195.58 28.00Q195.74 27.54 196.83 26.16Q197.91 24.79 198.92 23.91Q199.92 23.03 201.05 22.41Q202.19 21.80 202.64 21.66Z" fill="rgb(201, 201, 201)"></path></svg>